<svg xmlns="http://www.w3.org/2000/svg" style="display: none;">
  
    <symbol id="icon-code" viewBox="0 0 512 512">
      <path d="m195 110c5 4 8 10 8 16c0 6-3 11-8 15c0 0-126 115-126 115c0 0 126 116 126 116c5 4 8 9 8 15c0 6-3 12-8 16c-11 11-21 11-31 0c0 0-164-147-164-147c0 0 164-146 164-146c10-11 20-11 31 0m154 0c0 0 163 146 163 146c0 0-163 147-163 147c-11 11-21 11-32 0c-10-10-10-21 0-31c0 0 127-116 127-116c0 0-127-115-127-115c-10-10-10-21 0-31c11-11 21-11 32 0"/>
    </symbol>
  
    <symbol id="icon-floppy" viewBox="0 0 512 512">
      <path d="m388 51c0 0 73 80 73 80c0 0 0 279 0 279c0 13-5 25-15 35c-10 11-22 16-36 16c0 0-308 0-308 0c-13 0-25-5-35-16c-11-10-16-22-16-35c0 0 0-308 0-308c0-14 5-26 16-36c10-10 22-15 35-15c0 0 286 0 286 0m-30 154c0 0 0-128 0-128c0 0-204 0-204 0c0 0 0 128 0 128c0 7 2 13 7 18c5 5 11 7 18 7c0 0 154 0 154 0c7 0 13-2 18-7c5-5 7-11 7-18m-25-103c0 0 0 103 0 103c0 0-51 0-51 0c0 0 0-103 0-103c0 0 51 0 51 0"/>
    </symbol>
  
    <symbol id="icon-arrows-ccw" viewBox="0 0 512 512">
      <path d="m141 364c0 0 60-60 60-60c0 0 0 150 0 150c0 0-142-9-142-9c0 0 45-44 45-44c-39-41-59-91-58-148c1-57 21-107 62-148c34-34 75-53 122-59c0 0 2 52 2 52c-34 6-63 21-88 45c-30 30-45 67-46 109c0 43 14 80 43 112m170-307c0 0 142 9 142 9c0 0-45 44-45 44c39 41 59 91 58 148c-1 57-21 107-62 148c-32 33-73 53-122 60c0 0-1-53-1-53c33-6 62-21 87-45c30-30 45-67 46-109c0-43-14-80-43-112c0 0-59 60-59 60c0 0-1-150-1-150"/>
    </symbol>
  
    <symbol id="icon-install" viewBox="0 0 512 512">
      <path d="m478 279c8 17 11 34 7 49c0 0-17 94-17 94c-1 7-4 13-10 18c-6 5-12 7-20 7c0 0-364 0-364 0c-8 0-15-2-20-7c-6-5-9-11-10-18c0 0-18-94-18-94c-2-17 0-34 8-49c0 0 80-192 80-192c8-16 20-24 37-24c0 0 54 0 54 0c0 0-11 105-11 105c0 0-68 0-68 0c0 0 130 107 130 107c0 0 131-107 131-107c0 0-70 0-70 0c0 0-9-105-9-105c0 0 52 0 52 0c17 0 30 8 38 24c0 0 80 192 80 192m-35 67c1-7-1-14-5-19c-4-6-10-9-17-9c0 0-330 0-330 0c-8 0-13 3-17 9c-5 5-6 12-6 19c0 0 8 38 8 38c0 8 4 14 9 19c6 5 12 8 19 8c0 0 303 0 303 0c8 0 15-3 20-8c6-5 9-11 10-19c0 0 6-38 6-38"/>
    </symbol>
  
    <symbol id="icon-list-add" viewBox="0 0 512 512">
      <path d="m179 230c8 0 14 3 19 8c4 5 7 11 7 18c0 7-3 13-8 18c-5 5-11 8-18 8c0 0-153 0-153 0c-7 0-13-3-18-8c-5-5-8-11-8-18c0-7 2-13 7-18c5-5 11-8 19-8c0 0 153 0 153 0m0 103c8 0 14 2 19 7c4 6 7 12 7 18c0 7-3 13-8 18c-5 5-11 8-18 8c0 0-153 0-153 0c-7 0-13-3-18-8c-5-5-8-11-8-18c0-6 2-12 7-18c5-5 11-7 19-7c0 0 153 0 153 0m318-103c10 0 15 9 15 26c0 17-5 26-15 26c0 0-87 0-87 0c0 0 0 87 0 87c0 10-9 15-26 15c-17 0-26-5-26-15c0 0 0-87 0-87c0 0-84 0-84 0c-10 0-15-9-15-26c0-17 5-26 15-26c0 0 84 0 84 0c0 0 0-87 0-87c0-10 9-15 26-15c17 0 26 5 26 15c0 0 0 87 0 87c0 0 87 0 87 0m-318-102c8 0 14 3 19 8c4 5 7 11 7 18c0 6-3 12-8 18c-5 5-11 7-18 7c0 0-153 0-153 0c-7 0-13-2-18-7c-5-6-8-12-8-18c0-7 2-13 7-18c5-5 11-8 19-8c0 0 153 0 153 0"/>
    </symbol>
  
    <symbol id="icon-cw" viewBox="0 0 512 512">
      <path d="m224 46c58 0 107 20 147 59c41 40 62 88 63 145c0 0 63 0 63 0c0 0-95 105-95 105c0 0-94-105-94-105c0 0 74 0 74 0c-1-42-17-78-48-108c-31-29-67-44-110-44c-43 0-80 16-110 46c-31 31-46 68-46 112c0 43 15 80 46 111c30 30 67 46 110 46c36 0 67-11 93-31c0 0 36 39 36 39c-37 30-80 45-129 45c-57 0-106-21-147-62c-41-40-62-90-62-148c0-58 21-108 62-148c41-41 90-62 147-62"/>
    </symbol>
  
    <symbol id="icon-arrows" viewBox="0 0 512 512">
      <path d="m512 256c0 5-2 9-5 13l-74 73c-3 4-7 5-12 5-5 0-10-1-13-5-4-4-6-8-6-13l0-36-109 0 0 109 36 0c5 0 9 2 13 6 4 3 5 8 5 13 0 5-1 9-5 12l-73 74c-4 3-8 5-13 5-5 0-9-2-13-5l-73-74c-4-3-5-7-5-12 0-5 1-10 5-13 4-4 8-6 13-6l36 0 0-109-109 0 0 36c0 5-2 9-6 13-3 4-8 5-13 5-5 0-9-1-12-5l-74-73c-3-4-5-8-5-13 0-5 2-9 5-13l74-73c3-4 7-5 12-5 5 0 10 1 13 5 4 4 6 8 6 13l0 36 109 0 0-109-36 0c-5 0-9-2-13-6-4-3-5-8-5-13 0-5 1-9 5-12l73-74c4-3 8-5 13-5 5 0 9 2 13 5l73 74c4 3 5 7 5 12 0 5-1 10-5 13-4 4-8 6-13 6l-36 0 0 109 109 0 0-36c0-5 2-9 6-13 3-4 8-5 13-5 5 0 9 1 12 5l74 73c3 4 5 8 5 13z"/>
    </symbol>
  
    <symbol id="icon-pencil" viewBox="0 0 512 512">
      <path d="m455 150l-93-93c-5-5-14-5-20 0l-253 254l1 0l-1 0l-35 130l0 0c-2 4 0 10 3 14c5 4 11 5 16 2l0 0l128-34l0 0l0 0l254-254c5-5 5-14 0-19z m-359 265l21-76l56 56z"/>
    </symbol>
  
</svg>
